<svg width="49" height="49" viewBox="0 0 49 49" fill="none" xmlns="http://www.w3.org/2000/svg">
<path d="M33.3258 12.157C34.2519 11.9159 35.1877 11.7138 36.1308 11.551C36.7152 11.4516 37.3148 11.4934 37.8798 11.6727C38.4448 11.852 38.9587 12.1638 39.3788 12.582C41.4728 14.651 45.1668 19.41 45.1668 27.25C45.1668 34.673 44.8408 39.162 44.5608 41.647C44.3808 43.237 43.1428 44.404 41.5508 44.559C38.5398 44.853 32.8608 45.249 24.1538 45.249C15.4538 45.249 9.78579 44.853 6.78079 44.559C5.18979 44.404 3.95079 43.238 3.77279 41.649C3.50879 39.311 3.20479 35.198 3.16979 28.533C3.16579 27.7 3.40779 26.879 3.97679 26.269C7.29879 22.71 14.9038 18.807 22.2028 15.889" stroke="black" stroke-width="3" stroke-linecap="round" stroke-linejoin="round"/>
<path d="M34.1658 15.25C34.1658 16.0379 34.0106 16.8181 33.709 17.5461C33.4075 18.2741 32.9656 18.9355 32.4084 19.4926C31.8513 20.0498 31.1898 20.4917 30.4619 20.7933C29.7339 21.0948 28.9537 21.25 28.1658 21.25C27.3778 21.25 26.5976 21.0948 25.8697 20.7933C25.1417 20.4917 24.4803 20.0498 23.9231 19.4926C23.366 18.9355 22.924 18.2741 22.6225 17.5461C22.321 16.8181 22.1658 16.0379 22.1658 15.25C22.1658 13.6587 22.7979 12.1326 23.9231 11.0074C25.0483 9.88214 26.5745 9.25 28.1658 9.25C29.7571 9.25 31.2832 9.88214 32.4084 11.0074C33.5336 12.1326 34.1658 13.6587 34.1658 15.25Z" stroke="black" stroke-width="3" stroke-linecap="round" stroke-linejoin="round"/>
<path d="M28.1658 9.25C28.1658 5.936 25.7158 3.25 22.1658 3.25" stroke="black" stroke-width="3" stroke-linecap="round" stroke-linejoin="round"/>
<path d="M44.1658 36.25H4.16577" stroke="black" stroke-width="3" stroke-linecap="round" stroke-linejoin="round"/>
<path d="M45.1658 27.25H4.16577" stroke="black" stroke-width="3" stroke-linecap="round" stroke-linejoin="round"/>
</svg>
