<svg width="49" height="49" viewBox="0 0 49 49" fill="none" xmlns="http://www.w3.org/2000/svg">
<path d="M9.60577 19.516C12.2518 19.396 17.0598 19.25 24.9158 19.25C32.7718 19.25 37.5788 19.395 40.2258 19.516" stroke="black" stroke-width="3" stroke-linecap="round" stroke-linejoin="round"/>
<path d="M11.4298 36.97C13.7968 37.093 18.1278 37.25 24.9168 37.25C31.7058 37.25 36.0368 37.093 38.4038 36.97" stroke="black" stroke-width="3" stroke-linecap="round" stroke-linejoin="round"/>
<path d="M13.9678 3.603C13.2828 3.674 12.6888 4.052 12.3778 4.666C12.1613 5.0979 11.9699 5.54197 11.8048 5.996C10.9552 6.03424 10.1061 6.08358 9.25779 6.144C8.46579 6.201 7.74879 6.601 7.38579 7.307C6.91144 8.24648 6.54542 9.23684 6.29479 10.259C6.02179 11.34 6.82079 12.337 7.93379 12.402C10.4338 12.55 15.5598 12.75 24.9168 12.75C34.2728 12.75 39.3978 12.55 41.8988 12.402C43.0118 12.337 43.8108 11.34 43.5378 10.259C43.2872 9.23682 42.9212 8.24646 42.4468 7.307C42.0838 6.601 41.3668 6.201 40.5748 6.144C39.9748 6.1 39.1388 6.048 38.0278 5.996C37.8623 5.54195 37.6707 5.09787 37.4538 4.666C37.1438 4.052 36.5498 3.674 35.8648 3.603C34.4488 3.455 31.3258 3.25 24.9168 3.25C18.5068 3.25 15.3838 3.455 13.9668 3.603H13.9678Z" stroke="black" stroke-width="3" stroke-linecap="round" stroke-linejoin="round"/>
<path d="M9.09979 12.465C9.95879 26.365 11.5058 37.872 12.1898 42.531C12.3828 43.853 13.4408 44.858 14.7738 44.949C16.7938 45.088 20.1738 45.25 24.9158 45.25C29.6578 45.25 33.0388 45.088 35.0578 44.95C36.3908 44.858 37.4488 43.853 37.6428 42.53C38.3258 37.872 39.8728 26.366 40.7328 12.465" stroke="black" stroke-width="3" stroke-linecap="round" stroke-linejoin="round"/>
</svg>
