<svg width="49" height="49" viewBox="0 0 49 49" fill="none" xmlns="http://www.w3.org/2000/svg">
<path d="M22.3088 4.83701C19.9548 3.69201 17.3108 4.78101 16.0828 7.09301C7.21776 23.793 2.34376 42.765 4.37276 44.793C6.40176 46.823 25.3738 41.948 42.0728 33.083C44.3858 31.856 45.4748 29.211 44.3298 26.857C42.8328 23.779 40.0368 19.236 34.9838 14.183C29.9308 9.13001 25.3868 6.33301 22.3088 4.83701Z" stroke="black" stroke-width="3" stroke-linecap="round"/>
<path d="M40.2428 34.033C39.1378 31.213 36.3628 25.652 29.9888 19.277C23.6138 12.903 18.0528 10.128 15.2318 9.02301" stroke="black" stroke-width="3" stroke-linecap="round"/>
<path d="M6.69275 29.967C7.58675 30.299 8.55275 30.481 9.56275 30.481C11.4827 30.4821 13.3426 29.8116 14.8201 28.5856C16.2977 27.3596 17.2999 25.6554 17.6531 23.7682C18.0062 21.881 17.6882 19.9297 16.7539 18.2523C15.8197 16.575 14.3282 15.2773 12.5377 14.584" stroke="black" stroke-width="3" stroke-linecap="round"/>
<path d="M24.2838 40.917C24.0511 39.9816 23.6329 39.1024 23.054 38.3317C22.4751 37.561 21.7473 36.9144 20.9138 36.4303C20.0803 35.9461 19.158 35.6344 18.2017 35.5134C17.2454 35.3925 16.2745 35.4649 15.3467 35.7263C14.4189 35.9877 13.5531 36.4327 12.8005 37.0351C12.048 37.6375 11.4241 38.3848 10.9659 39.2329C10.5077 40.0809 10.2245 41.0124 10.1331 41.972C10.0417 42.9315 10.1439 43.8997 10.4338 44.819" stroke="black" stroke-width="3" stroke-linecap="round"/>
<path d="M30.9158 29.25C30.9158 30.3109 30.4943 31.3283 29.7442 32.0784C28.9941 32.8286 27.9766 33.25 26.9158 33.25C25.8549 33.25 24.8375 32.8286 24.0873 32.0784C23.3372 31.3283 22.9158 30.3109 22.9158 29.25C22.9158 28.1891 23.3372 27.1717 24.0873 26.4216C24.8375 25.6714 25.8549 25.25 26.9158 25.25C27.9766 25.25 28.9941 25.6714 29.7442 26.4216C30.4943 27.1717 30.9158 28.1891 30.9158 29.25Z" stroke="black" stroke-width="3" stroke-linecap="round"/>
</svg>
